<svg xmlns="http://www.w3.org/2000/svg" viewBox="0 0 234.764 151.556">
  <title>theloft</title>
  <g>
    <path d="M114.8,118.556a50.616,50.616,0,0,1-9.818,7.886,112.642,112.642,0,0,1-57.22,18.233V84.347c0-13.251,1.16-20.9,4.125-25.456s7.273-6.336,13.569-7.336H3.96c9.517,2,13.8,10.1,13.8,34.7v26.8c0,17.875-2.077,26.322-7.027,30.558-1.781,1.524-4.035,2.95-6.63,2.95H114.764V118.9l0.018-.348h0.02Z"/>
    <path d="M63.949,71.74A32.485,32.485,0,0,0,60.625,86.4c0,17.863,12.885,30.31,30.6,30.31a32.2,32.2,0,0,0,16.232-4.162c0.371-.214.733-0.439,1.092-0.669,0.047-.03.1-0.058,0.144-0.088,8.1-5.246,13.137-14.318,13.137-25.393,0-18.011-12.886-30.6-30.6-30.6C78.873,55.794,68.873,61.924,63.949,71.74ZM91.23,113.925c-3.368,0-6.3-9.371-6.3-27.674,0-14.87,1.933-23.651,4.464-26.422a2.512,2.512,0,0,1,1.83-.957c3.368,0,6.3,9.078,6.3,27.381,0,16.235-2.306,25.426-5.177,27.3A2.053,2.053,0,0,1,91.23,113.925Z"/>
    <path d="M230.8,125.493l-3.04-.586v-0.351h0.222c-1.308,7-4.067,11.559-7.49,13a6.421,6.421,0,0,1-2.465.589c-4.539,0-7.321-4.745-7.321-12.8L211,83.556h13.761v-3H211L211.531,48.7l0.232,0.109v0.052c-2,1.693-3.3,3.332-4.852,4.877a84.517,84.517,0,0,1-24.637,17.417l-0.254.008-0.257.008v9.385h-18V72.486c-8-2.489-22.065-10.25-22.065-19.474a7.5,7.5,0,0,1,.736-3.12c1.236-2.717,4.363-4.2,7.657-4.2,6.735,0,16.673,6.15,23.673,15.375V39.541a48.109,48.109,0,0,0-12.056-1.611c-11.541,0-21.5,5.123-24.876,16.706a32.507,32.507,0,0,0-1.068,9.067V80.556h-7v0.425h0v2.575h7v38.424c0,11.577-2.746,17.324-6.562,20.573-0.242.206-.6,0.4-0.856,0.591-0.015.011-.087-0.135-0.1-0.124-2.552,1.875-5.665,2.536-8.9,3.536h56.228c-6.15-2-11.8-4.81-11.8-24.724V83.556h18v38.277c0,17.571,7.81,25.771,24.795,25.771a29.686,29.686,0,0,0,7.63-.924C224,144.06,229.019,136.082,230.8,125.493Z"/>
    <path d="M34.764,15.538V29.794c0,6.11-1.365,6.761-3.13,7.761H45.3c-1.086-1-2.538-1.651-2.538-7.761V24.68c0-2.942,1.346-4.752,2.93-4.752,1.4,0,2.07,1.448,2.07,3.8v6.064c0,6.11-.607,6.761-1.693,7.761H59.648c-1.765-1-3.884-1.651-3.884-7.761V22.96c0-3.892-1.565-6.607-5.729-6.607A7.62,7.62,0,0,0,42.848,20.7L43.079,3.952A26.534,26.534,0,0,1,31.386,8.025C34.1,8.75,34.764,11.465,34.764,15.538Z"/>
    <path d="M17.764,8.568V29.342c0,5.657-1.608,7.214-4.278,8.214H30.321c-2.354-1-3.558-2.466-3.558-7.807V7.556h-19v11.2C9.764,14.271,13.764,10.922,17.764,8.568Z"/>
    <path d="M70.186,37.669a10.237,10.237,0,0,0,8.689-4.933,8.867,8.867,0,0,1-4.752,1.552c-2.761,0-5.567-1.733-6.381-5.733H79.554c0.091-1,.136-1.236.136-1.78,0-5.566-3.892-10.031-9.64-10.031A10.308,10.308,0,0,0,59.5,27.23,10.278,10.278,0,0,0,70.186,37.669ZM69.824,17.937c1.312,0,1.9,2.521,1.9,7.319a7.338,7.338,0,0,1-.045,1.3H67.606a9.925,9.925,0,0,1-.09-1.617C67.516,21.047,68.33,17.937,69.824,17.937Z"/>
  </g>
</svg>
