<svg xmlns="http://www.w3.org/2000/svg" viewBox="0 0 386.608 87.74">
  <title>theloft</title>
  <g>
    <path d="M222.667,81.76V37.826c0-19.023,4.233-21.42,13.272-23.42H192.847c6.832,2,9.819,7.129,9.819,24.786V58.427c0,17.447-2.673,22.98-9.714,23.98h55.714V54.222C243.667,67.045,232.667,77.451,222.667,81.76Z"/>
    <path d="M280.189,34.779c-13.874,0-23.963,9.985-23.963,24.279,0,14.189,10.09,24.068,23.963,24.068s23.963-9.985,23.963-24.068C304.152,44.764,294.062,34.779,280.189,34.779Zm0,46.14c-2.627,0-5.045-7.462-5.045-21.966S277.561,37.2,280.189,37.2s5.045,7.252,5.045,21.756S282.816,80.919,280.189,80.919Z"/>
    <path d="M379.93,66.94c-1.156,6.1-3.889,9.564-7.146,9.564s-5.256-3.363-5.256-9.143l0.211-29.954h9.928v-2h-9.928l0.026-23.016c-6.517,7.252-13.1,12.614-21.1,15.977v7.039h-13V29.313c-5-1.787-15.756-7.357-15.756-13.979,0-3.363,2.707-5.255,5.86-5.255,4.835,0,12.9,4.415,16.9,11.036V5.665a32.978,32.978,0,0,0-8.35-1.156c-10.194,0-18.65,5.57-18.65,18.5v12.4h-5v2h5V64.838c0,14.188-5.521,16.568-11.722,17.568H342.3c-4.414-1-8.637-3.38-8.637-17.674V37.407h13V64.733c0,12.612,5.648,18.5,17.84,18.5,10.721,0,15.857-6.516,17.435-15.87Z"/>
    <path d="M117.667,64.943V50.123c0-9.039-3.933-15.345-13.6-15.345-6.517,0-13.58,2.943-16.838,10.09L87.688,4.93a61.04,61.04,0,0,1-27.01,9.459c6.306,1.682,7.989,7.987,7.989,17.447V64.943c0,14.189-3.535,16.463-7.634,17.463H92.774c-2.522-1-5.107-3.274-5.107-17.463v-12.4c0-6.832,3.32-11.036,7-11.036,3.258,0,5,3.363,5,8.829V64.943c0,14.189-2.583,16.463-5.106,17.463h31.531C121.992,81.407,117.667,79.132,117.667,64.943Z"/>
    <path d="M49.667,64.838V14.407h-45V39.3a61,61,0,0,1,24-23.648V63.892c-1,13.138-3.579,17.515-9.78,18.515h39.1C52.52,81.407,50.667,77.24,49.667,64.838Z"/>
    <path d="M150.583,34.779c-14.189,0-24.174,10.931-24.174,24.279s9.88,24.173,24.489,24.173A23.647,23.647,0,0,0,170.972,71.88a21.832,21.832,0,0,1-10.931,3.145c-6.621,0-13.348-3.618-14.924-14.618h27.327a17.634,17.634,0,0,0,.315-3.565C172.759,44.44,163.825,34.779,150.583,34.779Zm3.784,23.628h-9.459c-0.1-1-.21-2.565-0.21-4.037,0-9.144,2.1-17.363,5.36-17.363,3.048,0,4.414,6.864,4.414,18A31.861,31.861,0,0,1,154.366,58.407Z"/>
  </g>
</svg>
